<mxfile host="app.diagrams.net" modified="2022-11-04T20:00:21.455Z" agent="5.0 (Windows NT 10.0; Win64; x64) AppleWebKit/537.36 (KHTML, like Gecko) Chrome/107.0.0.0 Safari/537.36" etag="lvzLbRbU-2Lwj-DEIOLV" version="20.5.1" type="github">
  <diagram id="prtHgNgQTEPvFCAcTncT" name="Page-1">
    <mxGraphModel dx="868" dy="482" grid="1" gridSize="10" guides="1" tooltips="1" connect="1" arrows="1" fold="1" page="1" pageScale="1" pageWidth="827" pageHeight="1169" math="0" shadow="0">
      <root>
        <mxCell id="0" />
        <mxCell id="1" parent="0" />
        <mxCell id="dNxyNK7c78bLwvsdeMH5-11" value="" style="swimlane;html=1;startSize=20;horizontal=1;containerType=tree;glass=0;" parent="1" vertex="1">
          <mxGeometry x="50" y="120" width="710" height="830" as="geometry" />
        </mxCell>
        <mxCell id="70ofpb50SstE-vDiVIDm-1" value="&lt;p style=&quot;line-height: 1;&quot;&gt;&lt;/p&gt;&lt;h1 style=&quot;background-color: rgb(255, 255, 254); line-height: 19px; font-size: 14px;&quot;&gt;&lt;b style=&quot;&quot;&gt;&lt;font style=&quot;font-size: 14px;&quot; face=&quot;Times New Roman&quot;&gt;Cuando&amp;nbsp;se&amp;nbsp;comete&amp;nbsp;un&amp;nbsp;feminicidio,&amp;nbsp;&lt;/font&gt;&lt;/b&gt;&lt;/h1&gt;&lt;h1 style=&quot;background-color: rgb(255, 255, 254); line-height: 19px; font-size: 14px;&quot;&gt;&lt;b&gt;&lt;font style=&quot;font-size: 14px;&quot; face=&quot;Times New Roman&quot;&gt;¿la&amp;nbsp;víctima&amp;nbsp;ha&amp;nbsp;sido&amp;nbsp;reportada&amp;nbsp;&lt;/font&gt;&lt;/b&gt;&lt;/h1&gt;&lt;h1 style=&quot;background-color: rgb(255, 255, 254); line-height: 19px; font-size: 14px;&quot;&gt;&lt;b style=&quot;&quot;&gt;&lt;font style=&quot;font-size: 14px;&quot; face=&quot;Times New Roman&quot;&gt;como&amp;nbsp;desaparecida&amp;nbsp;anteriormente?&lt;/font&gt;&lt;/b&gt;&lt;/h1&gt;&lt;p&gt;&lt;/p&gt;" style="rounded=0;whiteSpace=wrap;html=1;align=center;" vertex="1" parent="dNxyNK7c78bLwvsdeMH5-11">
          <mxGeometry x="222" y="30" width="282.5" height="110" as="geometry" />
        </mxCell>
        <mxCell id="70ofpb50SstE-vDiVIDm-2" value="&lt;p style=&quot;line-height: 1;&quot;&gt;&lt;/p&gt;&lt;h1 style=&quot;background-color: rgb(255, 255, 254); line-height: 19px; font-size: 14px;&quot;&gt;&lt;font style=&quot;font-weight: normal;&quot; face=&quot;Times New Roman&quot;&gt;¿Cuántas mujeres fueron reportadas como desaparecidas?, ¿Cuántas fueron localizadas con vida?, ¿Cuántas fueron localizadas sin vida o se cerró su caso?, ¿La respuesta a la pregunta anterior coincide con la cantidad de feminicidios denunciados?&lt;/font&gt;&lt;/h1&gt;&lt;p&gt;&lt;/p&gt;" style="rounded=0;whiteSpace=wrap;html=1;align=center;" vertex="1" parent="dNxyNK7c78bLwvsdeMH5-11">
          <mxGeometry x="222" y="190" width="282.5" height="130" as="geometry" />
        </mxCell>
        <mxCell id="70ofpb50SstE-vDiVIDm-3" value="&lt;p style=&quot;line-height: 1;&quot;&gt;&lt;/p&gt;&lt;h1 style=&quot;background-color: rgb(255, 255, 254); line-height: 19px; font-size: 14px;&quot;&gt;&lt;font style=&quot;&quot; face=&quot;Times New Roman&quot;&gt;Localizadas con vida.&lt;/font&gt;&lt;/h1&gt;&lt;div style=&quot;text-align: left;&quot;&gt;&lt;font style=&quot;font-weight: normal;&quot; face=&quot;Times New Roman&quot;&gt;Entidad.&lt;/font&gt;&lt;/div&gt;&lt;div style=&quot;text-align: left;&quot;&gt;&lt;font style=&quot;font-weight: normal;&quot; face=&quot;Times New Roman&quot;&gt;Desaparecidas voluntariamente.&lt;/font&gt;&lt;/div&gt;&lt;div style=&quot;text-align: left;&quot;&gt;&lt;font style=&quot;font-weight: normal;&quot; face=&quot;Times New Roman&quot;&gt;Desaparecidas involuntariamente.&amp;nbsp;&lt;/font&gt;&lt;/div&gt;&lt;p&gt;&lt;/p&gt;" style="rounded=0;whiteSpace=wrap;html=1;align=center;" vertex="1" parent="dNxyNK7c78bLwvsdeMH5-11">
          <mxGeometry x="10" y="400" width="282.5" height="130" as="geometry" />
        </mxCell>
        <mxCell id="70ofpb50SstE-vDiVIDm-4" value="&lt;p style=&quot;line-height: 1;&quot;&gt;&lt;/p&gt;&lt;h1 style=&quot;background-color: rgb(255, 255, 254); line-height: 19px; font-size: 14px;&quot;&gt;&lt;font style=&quot;&quot; face=&quot;Times New Roman&quot;&gt;Localizadas sin vida.&lt;/font&gt;&lt;/h1&gt;&lt;div style=&quot;text-align: left;&quot;&gt;&lt;font style=&quot;font-weight: normal;&quot; face=&quot;Times New Roman&quot;&gt;Entidad.&lt;/font&gt;&lt;/div&gt;&lt;div style=&quot;text-align: left;&quot;&gt;&lt;span style=&quot;font-family: &amp;quot;Times New Roman&amp;quot;; background-color: initial;&quot;&gt;Cantidad.&lt;/span&gt;&lt;/div&gt;&lt;div style=&quot;text-align: left;&quot;&gt;&lt;span style=&quot;font-family: &amp;quot;Times New Roman&amp;quot;; background-color: initial;&quot;&gt;Ya no se buscan.&lt;/span&gt;&lt;span style=&quot;background-color: initial; font-family: &amp;quot;Times New Roman&amp;quot;;&quot;&gt;&amp;nbsp;&lt;/span&gt;&lt;/div&gt;&lt;p&gt;&lt;/p&gt;" style="rounded=0;whiteSpace=wrap;html=1;align=center;" vertex="1" parent="dNxyNK7c78bLwvsdeMH5-11">
          <mxGeometry x="420" y="400" width="282.5" height="130" as="geometry" />
        </mxCell>
        <mxCell id="70ofpb50SstE-vDiVIDm-5" value="&lt;p style=&quot;line-height: 1;&quot;&gt;&lt;/p&gt;&lt;h1 style=&quot;background-color: rgb(255, 255, 254); line-height: 19px; font-size: 14px;&quot;&gt;&lt;font style=&quot;font-weight: normal;&quot; face=&quot;Times New Roman&quot;&gt;Concluir:&lt;/font&gt;&lt;/h1&gt;&lt;div&gt;&lt;font style=&quot;font-weight: normal;&quot; face=&quot;Times New Roman&quot;&gt;Según los datos,&amp;nbsp; el denunciar un feminicidio que haya sido precedido de un reporte de desaparición, es posible que haya sido en el estado de __________.&lt;/font&gt;&lt;/div&gt;&lt;p&gt;&lt;/p&gt;" style="rounded=0;whiteSpace=wrap;html=1;align=center;" vertex="1" parent="dNxyNK7c78bLwvsdeMH5-11">
          <mxGeometry x="222" y="640" width="282.5" height="130" as="geometry" />
        </mxCell>
        <mxCell id="70ofpb50SstE-vDiVIDm-7" value="" style="endArrow=none;html=1;rounded=0;fontFamily=Times New Roman;fontSize=14;" edge="1" parent="dNxyNK7c78bLwvsdeMH5-11">
          <mxGeometry width="50" height="50" relative="1" as="geometry">
            <mxPoint x="363" y="360" as="sourcePoint" />
            <mxPoint x="363" y="320" as="targetPoint" />
          </mxGeometry>
        </mxCell>
        <mxCell id="70ofpb50SstE-vDiVIDm-8" value="" style="endArrow=none;html=1;rounded=0;fontFamily=Times New Roman;fontSize=14;" edge="1" parent="dNxyNK7c78bLwvsdeMH5-11">
          <mxGeometry width="50" height="50" relative="1" as="geometry">
            <mxPoint x="364" y="360" as="sourcePoint" />
            <mxPoint x="560" y="360" as="targetPoint" />
          </mxGeometry>
        </mxCell>
        <mxCell id="70ofpb50SstE-vDiVIDm-9" value="" style="endArrow=none;html=1;rounded=0;fontFamily=Times New Roman;fontSize=14;" edge="1" parent="dNxyNK7c78bLwvsdeMH5-11">
          <mxGeometry width="50" height="50" relative="1" as="geometry">
            <mxPoint x="150" y="360" as="sourcePoint" />
            <mxPoint x="364" y="360" as="targetPoint" />
          </mxGeometry>
        </mxCell>
        <mxCell id="70ofpb50SstE-vDiVIDm-10" value="" style="endArrow=none;html=1;rounded=0;fontFamily=Times New Roman;fontSize=14;" edge="1" parent="dNxyNK7c78bLwvsdeMH5-11">
          <mxGeometry width="50" height="50" relative="1" as="geometry">
            <mxPoint x="560.75" y="400" as="sourcePoint" />
            <mxPoint x="560.75" y="360" as="targetPoint" />
          </mxGeometry>
        </mxCell>
        <mxCell id="70ofpb50SstE-vDiVIDm-12" value="" style="endArrow=none;html=1;rounded=0;fontFamily=Times New Roman;fontSize=14;" edge="1" parent="dNxyNK7c78bLwvsdeMH5-11">
          <mxGeometry width="50" height="50" relative="1" as="geometry">
            <mxPoint x="150.75" y="400" as="sourcePoint" />
            <mxPoint x="150.75" y="360" as="targetPoint" />
          </mxGeometry>
        </mxCell>
        <mxCell id="70ofpb50SstE-vDiVIDm-13" value="" style="endArrow=none;html=1;rounded=0;fontFamily=Times New Roman;fontSize=14;" edge="1" parent="dNxyNK7c78bLwvsdeMH5-11">
          <mxGeometry width="50" height="50" relative="1" as="geometry">
            <mxPoint x="150.75" y="570" as="sourcePoint" />
            <mxPoint x="150.75" y="530" as="targetPoint" />
          </mxGeometry>
        </mxCell>
        <mxCell id="70ofpb50SstE-vDiVIDm-14" value="" style="endArrow=none;html=1;rounded=0;fontFamily=Times New Roman;fontSize=14;" edge="1" parent="dNxyNK7c78bLwvsdeMH5-11">
          <mxGeometry width="50" height="50" relative="1" as="geometry">
            <mxPoint x="560.75" y="570" as="sourcePoint" />
            <mxPoint x="560.75" y="530" as="targetPoint" />
          </mxGeometry>
        </mxCell>
        <mxCell id="70ofpb50SstE-vDiVIDm-15" value="" style="endArrow=none;html=1;rounded=0;fontFamily=Times New Roman;fontSize=14;" edge="1" parent="dNxyNK7c78bLwvsdeMH5-11">
          <mxGeometry width="50" height="50" relative="1" as="geometry">
            <mxPoint x="150" y="570" as="sourcePoint" />
            <mxPoint x="560" y="570" as="targetPoint" />
          </mxGeometry>
        </mxCell>
        <mxCell id="70ofpb50SstE-vDiVIDm-16" value="" style="endArrow=none;html=1;rounded=0;fontFamily=Times New Roman;fontSize=14;exitX=0.5;exitY=0;exitDx=0;exitDy=0;" edge="1" parent="dNxyNK7c78bLwvsdeMH5-11" source="70ofpb50SstE-vDiVIDm-5">
          <mxGeometry width="50" height="50" relative="1" as="geometry">
            <mxPoint x="363" y="610" as="sourcePoint" />
            <mxPoint x="363" y="570" as="targetPoint" />
          </mxGeometry>
        </mxCell>
        <mxCell id="70ofpb50SstE-vDiVIDm-17" value="" style="endArrow=none;html=1;rounded=0;fontFamily=Times New Roman;fontSize=14;entryX=0.5;entryY=1;entryDx=0;entryDy=0;" edge="1" parent="dNxyNK7c78bLwvsdeMH5-11" target="70ofpb50SstE-vDiVIDm-1">
          <mxGeometry width="50" height="50" relative="1" as="geometry">
            <mxPoint x="363" y="190" as="sourcePoint" />
            <mxPoint x="363" y="150" as="targetPoint" />
          </mxGeometry>
        </mxCell>
      </root>
    </mxGraphModel>
  </diagram>
</mxfile>
